<?xml version="1.0" encoding="UTF-8"?>
<svg xmlns="http://www.w3.org/2000/svg" version="1.1" width="500" height="500" viewBox="0 0 500 500"><rect x="0" y="0" width="500" height="500" fill="#ffffff"/><g transform="scale(16.129)"><g transform="translate(1,1)"><g><g transform="translate(3.5,3.5)"><path fill-rule="evenodd" d="M-3.5 -3.5L3.5 -3.5L3.5 3.5L-3.5 3.5ZM-2.5 -2.5L-2.5 2.5L2.5 2.5L2.5 -2.5Z" fill="#000000"/><path fill-rule="evenodd" d="M-1.5 -1.5L1.5 -1.5L1.5 1.5L-1.5 1.5Z" fill="#000000"/></g></g><g><g transform="translate(25.5,3.5)"><g transform="rotate(90)"><path fill-rule="evenodd" d="M-3.5 -3.5L3.5 -3.5L3.5 3.5L-3.5 3.5ZM-2.5 -2.5L-2.5 2.5L2.5 2.5L2.5 -2.5Z" fill="#000000"/><path fill-rule="evenodd" d="M-1.5 -1.5L1.5 -1.5L1.5 1.5L-1.5 1.5Z" fill="#000000"/></g></g></g><g><g transform="translate(3.5,25.5)"><g transform="rotate(-90)"><path fill-rule="evenodd" d="M-3.5 -3.5L3.5 -3.5L3.5 3.5L-3.5 3.5ZM-2.5 -2.5L-2.5 2.5L2.5 2.5L2.5 -2.5Z" fill="#000000"/><path fill-rule="evenodd" d="M-1.5 -1.5L1.5 -1.5L1.5 1.5L-1.5 1.5Z" fill="#000000"/></g></g></g><path fill-rule="evenodd" d="M8 0L8 1L9 1L9 0ZM10 0L10 2L9 2L9 3L8 3L8 8L6 8L6 9L7 9L7 10L5 10L5 8L4 8L4 9L3 9L3 10L2 10L2 9L1 9L1 8L0 8L0 10L2 10L2 11L1 11L1 12L0 12L0 13L1 13L1 14L2 14L2 15L0 15L0 16L4 16L4 17L3 17L3 19L4 19L4 17L7 17L7 16L9 16L9 18L8 18L8 20L4 20L4 21L8 21L8 23L9 23L9 24L8 24L8 25L9 25L9 26L10 26L10 27L9 27L9 28L8 28L8 29L9 29L9 28L10 28L10 29L15 29L15 28L14 28L14 27L16 27L16 29L17 29L17 27L16 27L16 26L15 26L15 25L14 25L14 23L16 23L16 25L18 25L18 26L20 26L20 25L21 25L21 27L22 27L22 29L23 29L23 28L24 28L24 29L25 29L25 28L27 28L27 29L28 29L28 28L27 28L27 27L29 27L29 26L28 26L28 25L29 25L29 24L28 24L28 23L29 23L29 22L28 22L28 23L27 23L27 21L25 21L25 20L22 20L22 19L23 19L23 17L24 17L24 19L27 19L27 20L28 20L28 19L29 19L29 18L28 18L28 14L27 14L27 13L28 13L28 12L26 12L26 11L27 11L27 9L26 9L26 8L21 8L21 0L20 0L20 2L19 2L19 1L17 1L17 0L16 0L16 3L15 3L15 0L13 0L13 1L12 1L12 0ZM13 1L13 3L14 3L14 1ZM11 2L11 3L10 3L10 4L9 4L9 7L10 7L10 9L8 9L8 10L10 10L10 11L8 11L8 12L7 12L7 11L6 11L6 12L5 12L5 10L4 10L4 11L2 11L2 12L1 12L1 13L2 13L2 14L3 14L3 13L2 13L2 12L5 12L5 13L4 13L4 14L5 14L5 16L7 16L7 15L8 15L8 14L10 14L10 15L9 15L9 16L10 16L10 18L11 18L11 16L12 16L12 15L13 15L13 14L14 14L14 13L12 13L12 14L10 14L10 13L11 13L11 12L10 12L10 11L12 11L12 10L13 10L13 12L15 12L15 13L17 13L17 15L14 15L14 17L16 17L16 18L17 18L17 19L15 19L15 18L13 18L13 17L12 17L12 18L13 18L13 19L11 19L11 20L8 20L8 21L9 21L9 23L10 23L10 25L11 25L11 27L12 27L12 28L13 28L13 27L14 27L14 25L13 25L13 24L12 24L12 23L13 23L13 22L15 22L15 21L17 21L17 22L16 22L16 23L19 23L19 22L18 22L18 19L22 19L22 18L20 18L20 17L21 17L21 16L20 16L20 17L19 17L19 16L18 16L18 17L16 17L16 16L17 16L17 15L19 15L19 9L18 9L18 8L19 8L19 7L20 7L20 6L19 6L19 5L20 5L20 3L19 3L19 2L17 2L17 3L16 3L16 4L14 4L14 5L12 5L12 2ZM18 3L18 4L19 4L19 3ZM11 5L11 6L10 6L10 7L11 7L11 6L12 6L12 8L13 8L13 6L12 6L12 5ZM15 5L15 6L14 6L14 7L15 7L15 6L16 6L16 8L17 8L17 6L18 6L18 7L19 7L19 6L18 6L18 5ZM14 8L14 9L13 9L13 10L15 10L15 11L16 11L16 12L17 12L17 13L18 13L18 12L17 12L17 11L16 11L16 9L15 9L15 8ZM20 8L20 9L21 9L21 8ZM28 8L28 9L29 9L29 8ZM22 9L22 10L20 10L20 11L22 11L22 12L21 12L21 13L20 13L20 15L22 15L22 16L27 16L27 15L24 15L24 13L25 13L25 14L26 14L26 13L25 13L25 11L24 11L24 12L23 12L23 11L22 11L22 10L23 10L23 9ZM24 9L24 10L26 10L26 9ZM28 10L28 11L29 11L29 10ZM6 12L6 13L7 13L7 12ZM21 13L21 14L22 14L22 15L23 15L23 13ZM6 14L6 15L7 15L7 14ZM10 15L10 16L11 16L11 15ZM0 17L0 18L1 18L1 17ZM18 17L18 18L19 18L19 17ZM25 17L25 18L26 18L26 17ZM6 18L6 19L7 19L7 18ZM27 18L27 19L28 19L28 18ZM14 19L14 20L12 20L12 21L15 21L15 19ZM0 20L0 21L3 21L3 20ZM21 21L21 24L24 24L24 21ZM10 22L10 23L12 23L12 22ZM22 22L22 23L23 23L23 22ZM25 23L25 24L26 24L26 25L28 25L28 24L26 24L26 23ZM11 24L11 25L12 25L12 27L13 27L13 25L12 25L12 24ZM19 24L19 25L20 25L20 24ZM22 25L22 26L23 26L23 27L24 27L24 26L25 26L25 27L26 27L26 26L25 26L25 25L24 25L24 26L23 26L23 25ZM18 27L18 29L19 29L19 28L20 28L20 29L21 29L21 28L20 28L20 27Z" fill="#000000"/></g></g></svg>
